<?xml version="1.0" standalone="no"?>
<!DOCTYPE svg PUBLIC "-//W3C//DTD SVG 20010904//EN"
 "http://www.w3.org/TR/2001/REC-SVG-20010904/DTD/svg10.dtd">
<svg version="1.0" xmlns="http://www.w3.org/2000/svg"
 width="700.000000pt" height="700.000000pt" viewBox="0 0 700.000000 700.000000"
 preserveAspectRatio="xMidYMid meet">
<metadata>
Created by potrace 1.11, written by Peter Selinger 2001-2013
</metadata>
<g transform="translate(0.000000,700.000000) scale(0.100000,-0.100000)"
fill="#000000" stroke="none">
<path d="M633 5813 c-12 -66 -10 -73 20 -73 33 0 150 -35 213 -64 136 -62 269
-187 328 -308 59 -120 75 -204 86 -453 5 -121 17 -355 25 -520 59 -1193 68
-1726 30 -1885 -48 -206 -148 -329 -353 -438 l-101 -53 16 -47 c9 -26 17 -48
18 -50 2 -2 20 4 41 13 118 49 318 80 608 94 175 9 458 2 594 -15 l52 -6 0 55
0 54 -62 23 c-189 67 -307 232 -352 493 -28 156 -70 709 -82 1054 -6 169 -5
203 7 208 38 13 206 37 304 42 279 15 465 -107 520 -339 8 -35 15 -82 15 -104
l0 -41 53 -11 c28 -5 53 -9 55 -8 1 2 -3 72 -10 157 -6 85 -12 276 -12 424 0
283 14 457 53 635 11 47 17 88 15 91 -2 4 -25 10 -50 14 -26 3 -52 9 -58 11
-7 3 -21 -24 -35 -68 -44 -141 -103 -249 -176 -327 -57 -60 -85 -80 -169 -122
-111 -54 -252 -99 -391 -124 -49 -9 -99 -19 -109 -22 -19 -5 -19 2 -13 293 4
165 16 452 27 639 11 187 20 350 20 362 0 25 22 31 235 65 168 27 435 29 541
5 268 -61 427 -192 554 -459 47 -99 140 -360 140 -394 0 -13 8 -14 48 -8 26 3
48 8 50 9 2 2 -2 50 -9 107 -12 109 -6 455 10 471 13 13 183 -79 244 -134 82
-73 253 -276 348 -415 124 -181 464 -733 485 -787 9 -25 -433 -675 -644 -947
-37 -47 -114 -134 -172 -193 -170 -176 -298 -263 -555 -377 l-150 -66 3 -40
c2 -21 6 -41 8 -43 2 -2 50 4 106 12 304 48 756 44 1080 -7 43 -7 78 -10 78
-7 0 3 7 27 15 54 l14 47 -42 21 c-119 60 -139 136 -77 300 54 145 451 902
499 952 5 5 89 -139 189 -320 404 -737 481 -915 470 -1087 -9 -128 -54 -185
-232 -290 -61 -36 -117 -69 -124 -73 -10 -6 -10 -20 -2 -62 5 -30 12 -56 13
-58 2 -1 23 4 48 12 179 60 614 78 1054 44 141 -10 386 -36 423 -45 22 -4 23
-2 20 47 l-3 52 -89 24 c-128 34 -196 74 -309 183 -116 111 -208 231 -415 541
-276 414 -842 1335 -842 1370 0 11 14 34 163 264 337 520 635 918 813 1085 76
72 177 143 245 174 30 13 104 37 166 52 122 31 123 32 123 115 0 33 3 33 -75
14 -156 -38 -475 -39 -913 -4 -85 7 -146 8 -152 3 -5 -5 -11 -20 -15 -34 -5
-22 1 -30 39 -57 59 -42 78 -81 84 -173 7 -124 -41 -237 -240 -570 -101 -167
-382 -610 -388 -610 -10 0 -299 527 -319 582 -65 181 -40 335 75 458 24 25 59
55 79 66 22 12 33 24 31 34 -3 8 -10 34 -16 58 -9 34 -15 42 -28 38 -55 -18
-330 -56 -467 -66 -151 -10 -395 -3 -578 16 l-57 7 6 51 c3 28 15 112 25 186
36 247 36 234 8 227 -85 -21 -411 -60 -703 -82 -267 -21 -865 -30 -1121 -16
-343 17 -638 61 -818 122 -49 16 -89 29 -91 29 -1 0 -7 -26 -13 -57z"/>
</g>
</svg>
